<?xml version="1.0" encoding="UTF-8"?><svg id="uuid-cb3f40fa-8249-4925-92ea-9f0debf25e75" xmlns="http://www.w3.org/2000/svg" xmlns:xlink="http://www.w3.org/1999/xlink" viewBox="0 0 160 32"><defs><style>.uuid-77282c32-7ff1-40e5-a06e-d9eb4b6c55b3{fill:none;}.uuid-e684ca98-3fd6-4273-8100-514a84607e8e{fill:url(#uuid-c9f14ad9-bf76-44ea-9920-90af87166d68);}.uuid-66dde2e2-a181-4504-b1af-612e5ef0da9f{clip-path:url(#uuid-20d80260-4141-4e8b-938b-bef38354a8fb);}</style><clipPath id="uuid-20d80260-4141-4e8b-938b-bef38354a8fb"><path class="uuid-77282c32-7ff1-40e5-a06e-d9eb4b6c55b3" d="M100.85,26.96c-1.12-.64-2-1.6-2.72-2.8-.64-1.2-1.04-2.48-1.04-3.76s.32-2.56,1.04-3.76c.64-1.2,1.6-2.08,2.72-2.72,1.12-.64,2.4-.96,3.68-.96,2.08,0,3.84,.72,5.2,2.16,1.44,1.44,2.16,3.2,2.16,5.44,0,1.44-.32,2.72-.96,3.84s-1.52,2-2.72,2.64-2.48,.96-3.68,.96c-1.28,0-2.56-.32-3.68-1.04m-4.4-14.56c-2.16,2.16-3.28,4.88-3.28,7.92s1.12,5.84,3.2,8c2.16,2.16,4.72,3.28,7.76,3.28,1.68,0,3.28-.32,4.72-1.04,.96-.48,1.92-1.12,2.72-1.92v2.48h3.84V9.68h-3.84v2.56c-.8-.8-1.68-1.52-2.64-2-1.44-.72-3.04-1.12-4.8-1.12-2.88,0-5.52,1.12-7.68,3.28m48.98,14.56c-1.12-.64-2-1.6-2.72-2.8-.64-1.2-1.04-2.48-1.04-3.76s.32-2.56,1.04-3.76c.64-1.2,1.6-2.08,2.72-2.72,1.12-.64,2.4-.96,3.68-.96,2.08,0,3.84,.72,5.2,2.16,1.44,1.44,2.16,3.2,2.16,5.44,0,1.44-.32,2.72-.96,3.84s-1.52,2-2.72,2.64-2.48,.96-3.68,.96c-1.36,0-2.56-.32-3.68-1.04m-4.4-14.56c-2.16,2.16-3.28,4.88-3.28,7.92s1.12,5.84,3.2,8c2.16,2.16,4.72,3.28,7.76,3.28,1.68,0,3.28-.32,4.72-1.04,.96-.48,1.92-1.12,2.72-1.92v2.48h3.84V9.68h-3.84v2.56c-.8-.8-1.68-1.52-2.64-2-1.44-.72-3.04-1.12-4.8-1.12-2.88,0-5.52,1.12-7.68,3.28M53.95,2.56l-12.17,28.56h4.4l8.48-20.48,3.92,9.44h-5.12l-1.6,3.76h8.24l3.04,7.28h4.32L55.47,2.56h-1.52Zm75.96-.4v7.52h-3.52v3.52h3.52V31.12h3.84V13.2h3.92l1.44-3.52h-5.36V2.16h-3.84Zm-55.15,23.52c-1.44-1.44-2.16-3.2-2.16-5.44,0-1.44,.32-2.72,.96-3.84,.64-1.12,1.52-2,2.72-2.72,1.2-.64,2.4-1.04,3.76-1.04,1.28,0,2.48,.32,3.6,.96s2,1.6,2.72,2.8c.64,1.2,1.04,2.48,1.04,3.76,0,1.36-.32,2.56-1.04,3.76-.64,1.2-1.6,2.08-2.72,2.8-1.12,.64-2.32,.96-3.68,.96-2.08,.16-3.84-.48-5.2-2M68.91,1.84V31.12h3.84v-2.64c.8,.8,1.68,1.52,2.64,2,1.44,.72,3.04,1.12,4.8,1.12,3.04,0,5.68-1.12,7.84-3.28,2.16-2.16,3.28-4.88,3.28-7.92s-1.12-5.84-3.2-8c-2.16-2.16-4.72-3.28-7.76-3.28-1.68,0-3.28,.32-4.72,1.04-.96,.48-1.92,1.12-2.72,1.92V1.84h-4Zm50.67,29.28h3.84V1.84h-3.84V31.12ZM15.69,10.64h1.6l2,9.36h-5.68l2.08-9.36ZM3.28,16.4c0-6.64,5.04-12.32,11.61-13.12L6.08,24.48c-1.76-2.32-2.8-5.12-2.8-8.08M18.01,3.28c6.56,.8,11.61,6.48,11.61,13.12,0,2.96-.96,5.76-2.8,8.08L18.01,3.28ZM0,16.48c0,7.2,4.64,13.28,11.05,15.52l1.76-8.24h7.28l1.84,8.24c6.4-2.24,11.05-8.32,11.05-15.52C32.98,7.36,25.61,0,16.49,0S0,7.36,0,16.48"/></clipPath><linearGradient id="uuid-c9f14ad9-bf76-44ea-9920-90af87166d68" x1="-141.07" y1="-26.47" x2="-140.27" y2="-26.47" gradientTransform="translate(1139 -5611) rotate(-90) scale(40)" gradientUnits="userSpaceOnUse"><stop offset="0" stop-color="#020f50"/><stop offset=".5" stop-color="#1b3281"/><stop offset="1" stop-color="#0066b3"/></linearGradient></defs><g class="uuid-66dde2e2-a181-4504-b1af-612e5ef0da9f"><rect class="uuid-e684ca98-3fd6-4273-8100-514a84607e8e" width="160.08" height="32"/></g></svg>